<svg width="1200" height="630" viewBox="0 0 1200 630" fill="none" xmlns="http://www.w3.org/2000/svg">
<g clip-path="url(#clip0_128_235)">
<rect width="1200" height="630" fill="#1F1F1F"/>
<g opacity="0.75">
<g filter="url(#filter0_f_128_235)">
<path d="M548.989 242.222C233.811 67.105 -84.4184 -264.331 -212.795 -279.5C-442.644 -306.659 -409.031 321.687 -165.95 546.231C62.1478 756.935 1645.45 972.641 1256.92 546.231C1050.22 319.373 817.221 391.255 548.989 242.222Z" fill="#280075"/>
</g>
<g filter="url(#filter1_f_128_235)">
<path d="M533.228 453.864C268.149 306.68 0.504578 28.1134 -107.466 15.3639C-300.779 -7.46304 -272.508 520.652 -68.0667 709.379C123.773 886.472 983.504 874.093 932 666.146C892 504.646 758.823 579.124 533.228 453.864Z" fill="#CF00A3"/>
</g>
<g filter="url(#filter2_f_128_235)">
<path d="M735.546 626.305C755.733 542.788 244.235 363.32 -28.2495 343.48C-300.734 323.641 -109.115 625.531 146.922 689.218C360.027 742.226 715.359 709.822 735.546 626.305Z" fill="#FF8993"/>
<path d="M735.546 626.305C755.733 542.788 244.235 363.32 -28.2495 343.48C-300.734 323.641 -109.115 625.531 146.922 689.218C360.027 742.226 715.359 709.822 735.546 626.305Z" stroke="#FF1D74" stroke-opacity="0.5" stroke-width="40"/>
</g>
</g>
</g>
<defs>
<filter id="filter0_f_128_235" x="-618" y="-530.354" width="2186" height="1572" filterUnits="userSpaceOnUse" color-interpolation-filters="sRGB">
<feFlood flood-opacity="0" result="BackgroundImageFix"/>
<feBlend mode="normal" in="SourceGraphic" in2="BackgroundImageFix" result="shape"/>
<feGaussianBlur stdDeviation="125" result="effect1_foregroundBlur_128_235"/>
</filter>
<filter id="filter1_f_128_235" x="-538" y="-285.354" width="1772.22" height="1418.26" filterUnits="userSpaceOnUse" color-interpolation-filters="sRGB">
<feFlood flood-opacity="0" result="BackgroundImageFix"/>
<feBlend mode="normal" in="SourceGraphic" in2="BackgroundImageFix" result="shape"/>
<feGaussianBlur stdDeviation="150" result="effect1_foregroundBlur_128_235"/>
</filter>
<filter id="filter2_f_128_235" x="-330.992" y="172.555" width="1237.14" height="712.47" filterUnits="userSpaceOnUse" color-interpolation-filters="sRGB">
<feFlood flood-opacity="0" result="BackgroundImageFix"/>
<feBlend mode="normal" in="SourceGraphic" in2="BackgroundImageFix" result="shape"/>
<feGaussianBlur stdDeviation="75" result="effect1_foregroundBlur_128_235"/>
</filter>
<clipPath id="clip0_128_235">
<rect width="1200" height="630" fill="white"/>
</clipPath>
</defs>
</svg>
