<svg width="72" height="72" viewBox="0 0 72 72" fill="none" xmlns="http://www.w3.org/2000/svg">
<path fill-rule="evenodd" clip-rule="evenodd" d="M2.40638 8.48376C0 12.5527 0 18.0453 0 29.0304V42.9696C0 53.9547 0 59.4473 2.40638 63.5162C3.88801 66.0215 5.97846 68.112 8.48376 69.5936C12.5527 72 18.0453 72 29.0304 72H42.9696C53.9547 72 59.4473 72 63.5162 69.5936C66.0215 68.112 68.112 66.0215 69.5936 63.5162C72 59.4473 72 53.9547 72 42.9696V29.0304C72 18.0453 72 12.5527 69.5936 8.48376C68.112 5.97846 66.0215 3.88801 63.5162 2.40638C59.4473 0 53.9547 0 42.9696 0H29.0304C18.0453 0 12.5527 0 8.48376 2.40638C5.97846 3.88801 3.88801 5.97846 2.40638 8.48376Z" fill="#0C120C"/>
<path d="M12 36.9757C12 37.6285 12.2702 38.2515 12.7451 38.6933L27.6924 52.6012C28.6426 53.4854 30.1779 52.8033 30.1779 51.497V41.5999C30.1779 40.7714 30.8416 40.0998 31.6602 40.0998H32.3733L45.8089 52.6012C46.7591 53.4854 48.2945 52.8033 48.2945 51.497V41.5999C48.2945 40.7714 48.9581 40.0998 49.7767 40.0998H59.2677C60.0864 40.0998 60.75 39.4283 60.75 38.5998V24.5076C60.75 23.6792 60.0864 23.0076 59.2677 23.0076H49.735C48.9164 23.0076 48.2528 23.6792 48.2528 24.5076V34.5443C48.2528 35.8505 46.7175 36.5326 45.7673 35.6485L32.6021 23.3988C31.6519 22.5146 30.1166 23.1967 30.1166 24.503V34.7958C29.935 35.9342 28.5378 36.474 27.6507 35.6485L14.4855 23.3988C13.5353 22.5146 12 23.1967 12 24.503V36.9757Z" fill="white"/>
</svg>
