<svg width="35" height="35" viewBox="0 0 35 35" fill="none" xmlns="http://www.w3.org/2000/svg">
<path fill-rule="evenodd" clip-rule="evenodd" d="M1.16977 4.12405C0 6.10202 0 8.77201 0 14.112V20.888C0 26.228 0 28.898 1.16977 30.8759C1.89 32.0938 2.9062 33.11 4.12405 33.8302C6.10202 35 8.77201 35 14.112 35H20.888C26.228 35 28.898 35 30.8759 33.8302C32.0938 33.11 33.11 32.0938 33.8302 30.8759C35 28.898 35 26.228 35 20.888V14.112C35 8.77201 35 6.10202 33.8302 4.12405C33.11 2.9062 32.0938 1.89 30.8759 1.16977C28.898 0 26.228 0 20.888 0H14.112C8.77201 0 6.10202 0 4.12405 1.16977C2.9062 1.89 1.89 2.9062 1.16977 4.12405Z" fill="#0C120C"/>
<path fill-rule="evenodd" clip-rule="evenodd" d="M17.4703 9C17.4703 8.44771 17.918 8 18.4703 8H19.2941C19.8464 8 20.2941 8.44772 20.2941 9V11.5752L25.5933 17.9358C25.6466 17.9999 25.6923 18.0674 25.7303 18.1373C25.8731 18.3042 25.9725 18.5071 26.0102 18.7351C26.063 19.0543 26.1063 19.429 26.1055 19.7964C26.1048 20.1328 26.1781 20.4008 26.2723 20.606C26.3973 20.8787 26.636 21.0586 26.8773 21.2406L26.8774 21.2406L26.8774 21.2406C26.9951 21.3294 27.1134 21.4186 27.2196 21.5193C27.6986 21.9739 28.0017 22.651 28 23.4067C27.997 24.7724 26.9997 25.8776 25.7726 25.8752C24.5454 25.8727 23.553 24.7636 23.556 23.3978C23.5573 22.7939 23.753 22.241 24.0771 21.8122C24.2354 21.6028 24.4367 21.4244 24.636 21.248C24.977 20.9461 25.3117 20.6496 25.4138 20.2123C25.4436 20.0849 25.4618 19.9456 25.4621 19.7952C25.4623 19.7313 25.4592 19.6694 25.4533 19.6096C25.4337 19.6264 25.4133 19.6428 25.3923 19.6587L24.0534 20.6705L16.6893 26.2353C16.1347 26.6544 15.3255 26.5625 14.8819 26.03L9.25953 19.2814C8.81594 18.749 8.90593 17.9776 9.46053 17.5585L17.4703 11.5059V9ZM18.88 13C18.4658 13 18.13 13.3358 18.13 13.75C18.13 14.1642 18.4658 14.5 18.88 14.5C19.2942 14.5 19.63 14.1642 19.63 13.75C19.63 13.3358 19.2942 13 18.88 13Z" fill="white"/>
</svg>
