<svg width="1200" height="630" viewBox="0 0 1200 630" fill="none" xmlns="http://www.w3.org/2000/svg">
<g clip-path="url(#clip0_128_212)">
<rect width="1200" height="630" fill="#1F1F1F"/>
<g opacity="0.9" clip-path="url(#clip1_128_212)">
<g filter="url(#filter0_f_128_212)">
<path d="M2051.35 834C2051.35 1178.07 1693.32 971.977 1316.11 971.977C938.902 971.977 685.353 1178.07 685.353 834C685.353 489.927 991.142 211 1368.35 211C1745.56 211 2051.35 489.927 2051.35 834Z" fill="#6335D5"/>
</g>
<g filter="url(#filter1_f_128_212)">
<ellipse cx="300.46" cy="586.933" rx="651.829" ry="344.872" transform="rotate(10.5409 300.46 586.933)" fill="#0025CE"/>
</g>
<g filter="url(#filter2_f_128_212)">
<path d="M788.353 577C229.095 547.488 56.8531 20.5001 -137.647 35.5002C-382.147 54.3563 -336.591 548.661 -137.647 737C96.853 959 1167.35 597 788.353 577Z" fill="#00EAFF" fill-opacity="0.95"/>
</g>
<g filter="url(#filter3_f_128_212)">
<path d="M277.94 760.766C152.327 760.766 104.535 857.02 104.535 939.126C104.535 1110.45 802.341 722.136 1272.85 785.111C1433.44 806.607 1660.14 575.877 1530.06 523.377C1383.07 464.047 1153.4 565.173 1008.98 612.073C888.473 651.205 772.031 693.085 639.614 726.085C515.671 756.973 389.516 760.766 277.94 760.766Z" fill="#96C7FF"/>
</g>
<g filter="url(#filter4_f_128_212)">
<ellipse cx="7.85254" cy="134" rx="295.5" ry="265" fill="#303E57"/>
</g>
<g filter="url(#filter5_f_128_212)">
<path d="M978.993 924.262C978.993 1016.61 762.089 1045.23 528.139 1045.23C294.189 1045.23 -46.5759 1031.47 -46.5759 939.126C-46.5759 846.777 131.784 659.2 528.139 710.804C629.334 723.98 656.954 924.262 978.993 924.262Z" fill="#1F1F1F" fill-opacity="0.8"/>
</g>
</g>
</g>
<defs>
<filter id="filter0_f_128_212" x="385.353" y="-89" width="1966" height="1422.2" filterUnits="userSpaceOnUse" color-interpolation-filters="sRGB">
<feFlood flood-opacity="0" result="BackgroundImageFix"/>
<feBlend mode="normal" in="SourceGraphic" in2="BackgroundImageFix" result="shape"/>
<feGaussianBlur stdDeviation="150" result="effect1_foregroundBlur_128_212"/>
</filter>
<filter id="filter1_f_128_212" x="-743.514" y="-172.575" width="2087.95" height="1519.02" filterUnits="userSpaceOnUse" color-interpolation-filters="sRGB">
<feFlood flood-opacity="0" result="BackgroundImageFix"/>
<feBlend mode="normal" in="SourceGraphic" in2="BackgroundImageFix" result="shape"/>
<feGaussianBlur stdDeviation="200" result="effect1_foregroundBlur_128_212"/>
</filter>
<filter id="filter2_f_128_212" x="-504.375" y="-164.814" width="1573.16" height="1173.59" filterUnits="userSpaceOnUse" color-interpolation-filters="sRGB">
<feFlood flood-opacity="0" result="BackgroundImageFix"/>
<feBlend mode="normal" in="SourceGraphic" in2="BackgroundImageFix" result="shape"/>
<feGaussianBlur stdDeviation="100" result="effect1_foregroundBlur_128_212"/>
</filter>
<filter id="filter3_f_128_212" x="-120.465" y="280.226" width="1914.2" height="927.927" filterUnits="userSpaceOnUse" color-interpolation-filters="sRGB">
<feFlood flood-opacity="0" result="BackgroundImageFix"/>
<feBlend mode="normal" in="SourceGraphic" in2="BackgroundImageFix" result="shape"/>
<feGaussianBlur stdDeviation="112.5" result="effect1_foregroundBlur_128_212"/>
</filter>
<filter id="filter4_f_128_212" x="-587.647" y="-431" width="1191" height="1130" filterUnits="userSpaceOnUse" color-interpolation-filters="sRGB">
<feFlood flood-opacity="0" result="BackgroundImageFix"/>
<feBlend mode="normal" in="SourceGraphic" in2="BackgroundImageFix" result="shape"/>
<feGaussianBlur stdDeviation="150" result="effect1_foregroundBlur_128_212"/>
</filter>
<filter id="filter5_f_128_212" x="-241.576" y="506.978" width="1415.57" height="733.25" filterUnits="userSpaceOnUse" color-interpolation-filters="sRGB">
<feFlood flood-opacity="0" result="BackgroundImageFix"/>
<feBlend mode="normal" in="SourceGraphic" in2="BackgroundImageFix" result="shape"/>
<feGaussianBlur stdDeviation="97.5" result="effect1_foregroundBlur_128_212"/>
</filter>
<clipPath id="clip0_128_212">
<rect width="1200" height="630" fill="white"/>
</clipPath>
<clipPath id="clip1_128_212">
<rect width="2455" height="1304" fill="white" transform="translate(-403.223 -259)"/>
</clipPath>
</defs>
</svg>
