<svg width="1200" height="630" viewBox="0 0 1200 630" fill="none" xmlns="http://www.w3.org/2000/svg">
<g clip-path="url(#clip0_128_221)">
<rect width="1200" height="630" fill="#1F1F1F"/>
<g opacity="0.8" clip-path="url(#clip1_128_221)">
<g filter="url(#filter0_f_128_221)">
<ellipse cx="898.624" cy="477.79" rx="592.5" ry="327" transform="rotate(-6.48121 898.624 477.79)" fill="#8349FF"/>
</g>
<g filter="url(#filter1_f_128_221)">
<path d="M1315 276.5C1368.98 200.022 1372.06 141.65 1399 52C1451 -121.054 1412.7 -234.7 1474.5 -404.5C1600.6 -750.965 1818.65 339.641 1508.5 539C1313.53 664.324 743.009 694.368 915 539C983.687 476.951 1049.43 483.503 1127 433C1207.06 380.88 1259.91 354.546 1315 276.5Z" fill="url(#paint0_linear_128_221)"/>
</g>
<g filter="url(#filter2_f_128_221)">
<path d="M231.881 328.946C90.0739 338.276 -2.47822 390.62 -92.5007 512.407C-274.87 759.124 790.639 837.497 642.249 566.451C548.686 395.552 413.013 317.029 231.881 328.946Z" fill="#0013FF"/>
</g>
<g filter="url(#filter3_f_128_221)">
<path d="M234.311 517.576C116.52 521.327 40.0448 548.502 -33.7221 612.819C-183.16 743.114 703.196 794.297 577.488 648.114C498.227 555.942 384.768 512.785 234.311 517.576Z" fill="#00FFFF"/>
</g>
</g>
</g>
<defs>
<filter id="filter0_f_128_221" x="8.73486" y="-153.998" width="1779.78" height="1263.58" filterUnits="userSpaceOnUse" color-interpolation-filters="sRGB">
<feFlood flood-opacity="0" result="BackgroundImageFix"/>
<feBlend mode="normal" in="SourceGraphic" in2="BackgroundImageFix" result="shape"/>
<feGaussianBlur stdDeviation="150" result="effect1_foregroundBlur_128_221"/>
</filter>
<filter id="filter1_f_128_221" x="633.106" y="-721.976" width="1284.19" height="1616.53" filterUnits="userSpaceOnUse" color-interpolation-filters="sRGB">
<feFlood flood-opacity="0" result="BackgroundImageFix"/>
<feBlend mode="normal" in="SourceGraphic" in2="BackgroundImageFix" result="shape"/>
<feGaussianBlur stdDeviation="125" result="effect1_foregroundBlur_128_221"/>
</filter>
<filter id="filter2_f_128_221" x="-413.572" y="27.769" width="1370.05" height="1008.95" filterUnits="userSpaceOnUse" color-interpolation-filters="sRGB">
<feFlood flood-opacity="0" result="BackgroundImageFix"/>
<feBlend mode="normal" in="SourceGraphic" in2="BackgroundImageFix" result="shape"/>
<feGaussianBlur stdDeviation="150" result="effect1_foregroundBlur_128_221"/>
</filter>
<filter id="filter3_f_128_221" x="-250.757" y="317.217" width="1040.5" height="619.41" filterUnits="userSpaceOnUse" color-interpolation-filters="sRGB">
<feFlood flood-opacity="0" result="BackgroundImageFix"/>
<feBlend mode="normal" in="SourceGraphic" in2="BackgroundImageFix" result="shape"/>
<feGaussianBlur stdDeviation="100" result="effect1_foregroundBlur_128_221"/>
</filter>
<linearGradient id="paint0_linear_128_221" x1="1421.5" y1="-87" x2="1224.5" y2="484" gradientUnits="userSpaceOnUse">
<stop stop-color="#FF0095"/>
<stop offset="1" stop-color="#FFCDFF"/>
</linearGradient>
<clipPath id="clip0_128_221">
<rect width="1200" height="630" fill="white"/>
</clipPath>
<clipPath id="clip1_128_221">
<rect width="1440" height="1792" fill="white" transform="translate(0 -403)"/>
</clipPath>
</defs>
</svg>
