<svg width="35" height="35" viewBox="0 0 35 35" fill="none" xmlns="http://www.w3.org/2000/svg">
<path fill-rule="evenodd" clip-rule="evenodd" d="M1.16977 4.12405C0 6.10202 0 8.77201 0 14.112V20.888C0 26.228 0 28.898 1.16977 30.8759C1.89 32.0938 2.9062 33.11 4.12405 33.8302C6.10202 35 8.77201 35 14.112 35H20.888C26.228 35 28.898 35 30.8759 33.8302C32.0938 33.11 33.11 32.0938 33.8302 30.8759C35 28.898 35 26.228 35 20.888V14.112C35 8.77201 35 6.10202 33.8302 4.12405C33.11 2.9062 32.0938 1.89 30.8759 1.16977C28.898 0 26.228 0 20.888 0H14.112C8.77201 0 6.10202 0 4.12405 1.16977C2.9062 1.89 1.89 2.9062 1.16977 4.12405Z" fill="#0C120C"/>
<path fill-rule="evenodd" clip-rule="evenodd" d="M20.5107 10.0182C20.5048 8.91243 21.3973 8.01172 22.5031 8.00755L24.5031 8.00001C25.6064 7.99585 26.5047 8.886 26.5106 9.98933L26.5127 10.3836L20.5128 10.4062L20.5107 10.0182ZM26.5061 10.9774L20.5061 11L20.5351 18.6812C20.5375 19.322 20.8469 19.9229 21.3671 20.2972L22.7461 21.2892C22.904 21.4793 23 21.7301 23 22.005C23 22.4544 22.7435 22.8394 22.3792 23H10C8.89543 23 8 23.8954 8 25C8 26.1046 8.89543 27 10 27H25C26.1046 27 27 26.1046 27 25C27 23.8954 26.1046 23 25 23H24.4902C24.1967 22.8127 24 22.4685 24 22.075C24 21.7864 24.1058 21.5243 24.278 21.3312L25.7152 20.2808C26.2326 19.9026 26.5374 19.2994 26.535 18.6585L26.5061 10.9774ZM13 19C13 17.8954 12.1046 17 11 17H10C8.89543 17 8 17.8954 8 19C8 20.1046 8.89543 21 10 21H11C12.1046 21 13 20.1046 13 19ZM18 13C18 11.8954 17.1046 11 16 11H10C8.89543 11 8 11.8954 8 13C8 14.1046 8.89543 15 10 15H16C17.1046 15 18 14.1046 18 13Z" fill="white"/>
</svg>
