<svg fill="none" height="32" width="110.33333333333333" viewBox="0 0 331 96" xmlns="http://www.w3.org/2000/svg"><g class="text-black fill-current dark:text-white"><g clip-rule="evenodd" fill-rule="evenodd"><path d="m31.953 16.339c-.1747.0319-.3545.0596-.7713.1235l-.0745.0114c-1.1039.1692-1.7428.2672-2.3219.4008-5.9208 1.3666-10.544 5.9898-11.9106 11.9106-.1336.5791-.2316 1.218-.4008 2.3218l-.0114.0746c-.0639.4168-.0916.5966-.1235.7713-.328 1.7971-1.0348 3.5036-2.0736 5.0062-.101.1461-.2086.2929-.4581.6327l-.0446.0607c-.6609.9003-1.0434 1.4213-1.3584 1.9253-3.22036 5.153-3.22036 11.6912 0 16.8442.315.504.6974 1.025 1.3583 1.9251l.0447.0609c.2495.3399.3571.4866.4581.6327 1.0388 1.5026 1.7456 3.2092 2.0736 5.0062.0319.1747.0596.3545.1235.7713l.0114.0746c.1692 1.1038.2672 1.7427.4008 2.3218 1.3666 5.9208 5.9898 10.544 11.9106 11.9106.5791.1336 1.2179.2316 2.3217.4008l.0747.0114c.4168.0639.5966.0916.7713.1235 1.7971.328 3.5036 1.0349 5.0062 2.0736.1461.1011.2929.2086.6327.4581l.0608.0446c.9002.6609 1.4212 1.0434 1.9252 1.3584 5.153 3.2204 11.6912 3.2204 16.8442 0 .504-.3149 1.0249-.6974 1.9251-1.3583l.0609-.0447c.3399-.2495.4866-.357.6327-.4581 1.5026-1.0387 3.2092-1.7456 5.0062-2.0736.1747-.0319.3545-.0596.7713-.1235l.0747-.0114c1.1037-.1692 1.7426-.2672 2.3217-.4008 5.9208-1.3666 10.544-5.9898 11.9106-11.9106.1336-.5791.2316-1.2179.4008-2.3216l.0114-.0748c.0639-.4168.0916-.5966.1235-.7713.328-1.797 1.0349-3.5036 2.0736-5.0062.1011-.1461.2086-.2928.4581-.6327l.0446-.0608c.661-.9002 1.0434-1.4212 1.3584-1.9252 3.2204-5.153 3.2204-11.6912 0-16.8442-.315-.504-.6975-1.025-1.3584-1.9252l-.0446-.0608c-.2495-.3398-.357-.4866-.4581-.6327-1.0387-1.5026-1.7456-3.2091-2.0736-5.0062-.0319-.1747-.0596-.3545-.1235-.7713l-.0114-.0747c-.1692-1.1038-.2672-1.7426-.4008-2.3217-1.3666-5.9208-5.9898-10.544-11.9106-11.9106-.5791-.1336-1.218-.2316-2.3218-.4008l-.0746-.0114c-.4168-.0639-.5966-.0916-.7713-.1235-1.797-.328-3.5036-1.0348-5.0062-2.0736-.1461-.101-.2928-.2086-.6327-.4581l-.0607-.0446c-.9003-.6609-1.4213-1.0434-1.9253-1.3584-5.153-3.22036-11.6912-3.22036-16.8442 0-.504.315-1.025.6975-1.9253 1.3584l-.0607.0446c-.3398.2495-.4866.3571-.6327.4581-1.5026 1.0388-3.2091 1.7456-5.0062 2.0736zm6.5346-1.3117c.9579-.7032 1.4368-1.0548 1.8924-1.3396 4.6622-2.9136 10.5778-2.9136 15.24 0 .4556.2848.9345.6364 1.8923 1.3395.3331.2445.5001.3671.6678.4831 1.6794 1.161 3.5867 1.9511 5.5951 2.3176.2008.0366.4051.0679.8137.1306 1.1746.1801 1.7619.2701 2.2854.3909 5.3569 1.2364 9.5399 5.4194 10.7763 10.7763.1208.5235.2108 1.1108.3909 2.2854l.0004.0024c.0624.407.0937.6109.1302.8113.3666 2.0084 1.1566 3.9157 2.3176 5.5951.116.1678.2383.3344.483.6677.7032.9579 1.0548 1.4368 1.3396 1.8924 2.9136 4.6622 2.9136 10.5778 0 15.24-.2848.4556-.6364.9345-1.3395 1.8923l-.0017.0023c-.2436.3318-.3656.4981-.4814.6655-1.161 1.6794-1.951 3.5867-2.3176 5.5951-.0366.2007-.0679.4049-.1305.8131-.18 1.1745-.2702 1.7625-.391 2.286-1.2364 5.3569-5.4194 9.5399-10.7763 10.7763-.5235.1208-1.1108.2108-2.2854.3909-.4082.0626-.613.094-.8137.1306-2.0084.3666-3.9157 1.1566-5.5951 2.3176-.1674.1158-.3337.2378-.6655.4814l-.0019.0014c-.9578.7031-1.4371 1.055-1.8927 1.3398-4.6622 2.9136-10.5778 2.9136-15.24 0-.4556-.2848-.9345-.6364-1.8924-1.3396-.3333-.2447-.4999-.367-.6677-.483-1.6794-1.161-3.5867-1.951-5.5951-2.3176-.2004-.0365-.4043-.0678-.8113-.1302l-.0018-.0003c-1.1746-.1801-1.7625-.2702-2.286-.391-5.3569-1.2364-9.5399-5.4194-10.7763-10.7763-.1208-.5235-.2108-1.1108-.3909-2.2854-.0627-.4086-.094-.6129-.1306-.8137-.3665-2.0084-1.1566-3.9157-2.3176-5.5951-.116-.1677-.2382-.3343-.4827-.6673-.7031-.9577-1.0551-1.4372-1.3399-1.8928-2.9136-4.6622-2.9136-10.5778 0-15.24.2848-.4556.6364-.9345 1.3396-1.8924.2446-.3332.367-.4999.483-.6677 1.161-1.6794 1.9511-3.5867 2.3176-5.5951.0366-.2008.0679-.4051.1306-.8137.1801-1.1746.2701-1.7619.3909-2.2854 1.2364-5.3569 5.4194-9.5399 10.7763-10.7763.5235-.1208 1.1108-.2108 2.2854-.3909.4086-.0627.6129-.094.8137-.1306 2.0084-.3665 3.9157-1.1566 5.5951-2.3176.1678-.116.3345-.2384.6677-.483z"></path><path d="m29.1081 12.7073c.9105-.1396 1.3033-.2005 1.6826-.283 1.5005-.3263 2.9305-.9186 4.2223-1.7489.3265-.2099.6473-.4446 1.3898-.98969l.1329-.09755c1.9675-1.44452 3.1066-2.28087 4.2662-2.87 4.5236-2.2982 9.8726-2.2982 14.3961 0 1.1596.58913 2.2988 1.42547 4.2662 2.86998l.1329.09757c.7426.54509 1.0634.77979 1.3899.98969 1.2918.8303 2.7217 1.4226 4.2223 1.7489.3793.0825.772.1434 1.6826.283l.1629.025c2.4126.3698 3.8095.5839 5.0461.9872 4.8237 1.5736 8.606 5.3559 10.1796 10.1796.4033 1.2366.6174 2.6334.9872 5.046l.025.163c.1396.9106.2005 1.3033.283 1.6826.3263 1.5005.9186 2.9305 1.7489 4.2223.2099.3265.4445.6473.9897 1.3899l.0975.1327c1.4445 1.9675 2.2809 3.1067 2.87 4.2663 2.2982 4.5236 2.2982 9.8726 0 14.3962-.5891 1.1596-1.4254 2.2987-2.8699 4.2661l-.0976.1329c-.5452.7426-.7798 1.0634-.9897 1.3899-.8303 1.2918-1.4226 2.7218-1.7489 4.2223-.0825.3793-.1434.772-.283 1.6826l-.025.163c-.3698 2.4126-.5839 3.8095-.9872 5.046-1.5736 4.8237-5.3559 8.606-10.1796 10.1796-1.2366.4033-2.6334.6174-5.046.9872l-.163.025c-.9106.1396-1.3033.2005-1.6826.283-1.5006.3263-2.9305.9186-4.2223 1.7489-.3265.2099-.6473.4446-1.3899.9897l-.1328.0975c-1.9674 1.4445-3.1067 2.2809-4.2663 2.8701-4.5235 2.2982-9.8725 2.2982-14.3961 0-1.1596-.5892-2.2987-1.4255-4.2662-2.8701l-.1329-.0975c-.7425-.5451-1.0633-.7798-1.3898-.9897-1.2918-.8303-2.7218-1.4226-4.2223-1.7489-.3793-.0825-.7721-.1434-1.6826-.283l-.163-.025c-2.4126-.3697-3.8095-.5839-5.046-.9872-4.8237-1.5736-8.606-5.3559-10.1796-10.1796-.4034-1.2366-.6175-2.6334-.9873-5.0461l-.0249-.1629c-.1396-.9106-.2005-1.3033-.283-1.6826-.3263-1.5005-.9186-2.9305-1.7489-4.2223-.2099-.3265-.4446-.6473-.98971-1.3899l-.09757-.1328c-1.44451-1.9675-2.28085-3.1066-2.86998-4.2662-2.2982-4.5236-2.2982-9.8726 0-14.3962.58913-1.1596 1.42548-2.2987 2.87-4.2662l.09755-.1328c.54511-.7426.77981-1.0634.98971-1.3899.8303-1.2918 1.4226-2.7218 1.7489-4.2223.0825-.3793.1434-.772.283-1.6826l.0249-.1629c.3698-2.4127.5839-3.8095.9873-5.0461 1.5736-4.8237 5.3559-8.606 10.1796-10.1796 1.2365-.4033 2.6334-.6174 5.0461-.9872zm12.3793-4.63981c-1.0483.53259-2.0951 1.30111-4.1888 2.83811-.728.5345-1.0923.8019-1.4673 1.043-1.4437.9279-3.0419 1.5899-4.719 1.9546-.4356.0948-.882.1632-1.7748.3001-2.5674.3936-3.8511.5904-4.969.9551-4.3643 1.4237-7.7864 4.8458-9.2101 9.2101-.3647 1.1179-.5615 2.4016-.9551 4.969-.1369.8928-.2054 1.3392-.3001 1.7748-.3647 1.6771-1.0267 3.2753-1.9547 4.719-.241.375-.5082.7391-1.0427 1.4671-1.53699 2.0936-2.30574 3.1408-2.83833 4.1891-2.07933 4.0927-2.07933 8.9323 0 13.025.5326 1.0484 1.30114 2.0952 2.83823 4.189.5345.728.8018 1.0922 1.0428 1.4672.928 1.4437 1.59 3.0419 1.9547 4.719.0947.4356.1632.882.3001 1.7748.3936 2.5674.5904 3.8511.9551 4.969 1.4237 4.3643 4.8458 7.7864 9.2101 9.2101 1.1179.3647 2.4016.5615 4.969.9551.8926.1369 1.3392.2053 1.7748.3001 1.6771.3647 3.2753 1.0267 4.719 1.9546.3749.241.7387.5081 1.4661 1.0421l.0014.001c2.0936 1.537 3.1404 2.3054 4.1886 2.838 4.0928 2.0793 8.9324 2.0793 13.0251 0 1.0483-.5326 2.0952-1.3011 4.189-2.8382.7277-.5343 1.0922-.8018 1.4672-1.0429 1.4437-.9279 3.0419-1.5899 4.7189-1.9546.4356-.0947.8819-.1632 1.7744-.3 2.5674-.3936 3.8516-.5905 4.9695-.9552 4.3643-1.4237 7.7864-4.8458 9.2101-9.2101.3647-1.1179.5615-2.4016.9551-4.969.1368-.8924.2053-1.3393.3-1.7748.3647-1.6771 1.0267-3.2753 1.9547-4.719.241-.375.5082-.7389 1.0425-1.4667 1.5371-2.0938 2.306-3.1411 2.8386-4.1895 2.0793-4.0927 2.0793-8.9323 0-13.025-.5326-1.0483-1.3011-2.0951-2.838-4.1886l-.001-.0014c-.534-.7274-.8011-1.0913-1.0421-1.4662-.928-1.4437-1.59-3.0419-1.9547-4.719-.0947-.4356-.1631-.8819-.3-1.7745-.3936-2.5674-.5904-3.8514-.9551-4.9693-1.4237-4.3643-4.8458-7.7864-9.2101-9.2101-1.1179-.3647-2.4016-.5615-4.969-.9551-.8928-.1369-1.3392-.2053-1.7749-.3001-1.677-.3647-3.2752-1.0267-4.7189-1.9546-.3751-.2411-.7391-.5083-1.4671-1.0428-2.0937-1.53706-3.1408-2.30571-4.1891-2.83831-4.0927-2.07932-8.9323-2.07932-13.0251 0z"></path><path d="m27.0345 8.95209c1.4045-.21533 2.0102-.30979 2.5908-.45666 1.2074-.30538 2.364-.78446 3.4336-1.42224.5144-.30672 1.0095-.66818 2.1549-1.50907l.2051-.15056c3.0366-2.22959 4.7959-3.52135 6.6634-4.27064 3.798-1.523895 8.0374-1.523894 11.8354 0 1.8675.74928 3.6268 2.04104 6.6634 4.27061l.2051.15059c1.1454.84089 1.6405 1.20235 2.1549 1.50907 1.0696.63778 2.2262 1.11686 3.4336 1.42224.5806.14687 1.1863.24133 2.5908.45666l.2515.03855c3.7238.57066 5.8812.90129 7.7315 1.69196 3.7631 1.608 6.7609 4.6058 8.3689 8.3689.7907 1.8503 1.1213 4.0078 1.692 7.7315l.0385.2515c.2153 1.4045.3098 2.0102.4567 2.5908.3054 1.2074.7844 2.364 1.4222 3.4336.3067.5144.6682 1.0095 1.5091 2.1549l.1506.2051c2.2296 3.0366 3.5213 4.796 4.2706 6.6634 1.5239 3.798 1.5239 8.0374 0 11.8354-.7493 1.8674-2.0411 3.6268-4.2706 6.6634l-.1506.2051c-.8409 1.1454-1.2024 1.6405-1.5091 2.1549-.6378 1.0696-1.1168 2.2262-1.4222 3.4336-.1469.5806-.2414 1.1863-.4567 2.5908l-.0385.2515c-.5707 3.7235-.9014 5.8813-1.692 7.7315-1.608 3.7631-4.6058 6.7609-8.3689 8.3689-1.8502.7906-4.0076 1.1213-7.7312 1.6919l-.2518.0386c-1.4045.2153-2.0102.3098-2.5908.4567-1.2074.3054-2.364.7844-3.4336 1.4222-.5144.3067-1.0095.6682-2.1549 1.5091l-.2051.1506c-3.0366 2.2295-4.796 3.5213-6.6634 4.2706-3.798 1.5239-8.0374 1.5239-11.8354 0-1.8674-.7493-3.6268-2.041-6.6634-4.2706l-.2051-.1506c-1.1454-.8409-1.6405-1.2024-2.1549-1.5091-1.0696-.6378-2.2262-1.1168-3.4336-1.4222-.5806-.1469-1.1863-.2414-2.5908-.4567l-.2515-.0385c-3.7237-.5707-5.8812-.9013-7.7315-1.692-3.7631-1.608-6.7609-4.6058-8.3689-8.3689-.79067-1.8503-1.1213-4.0078-1.69196-7.7315l-.03855-.2515c-.21533-1.4045-.30979-2.0102-.45666-2.5908-.30538-1.2074-.78446-2.364-1.42224-3.4336-.30672-.5144-.66818-1.0095-1.50907-2.1549l-.15059-.2051c-2.22958-3.0366-3.52133-4.7959-4.27061-6.6634-1.523894-3.798-1.523895-8.0374 0-11.8354.74929-1.8675 2.04105-3.6268 4.27064-6.6634l.15056-.2051c.84089-1.1454 1.20235-1.6405 1.50907-2.1549.63778-1.0696 1.11686-2.2262 1.42224-3.4336.14687-.5806.24133-1.1863.45666-2.5908l.03855-.2515c.57066-3.7238.90129-5.8812 1.69196-7.7315 1.608-3.7631 4.6058-6.7609 8.3689-8.3689 1.8503-.79067 4.0077-1.1213 7.7315-1.69196zm15.6114-6.40453c-1.6883.67738-3.3043 1.86377-6.5364 4.23658-1.1231.82448-1.6846 1.23671-2.2755 1.58901-1.1955.71281-2.4882 1.24825-3.8375 1.58956-.667.16869-1.3555.27429-2.7326.48539-3.9633.6076-5.9449.9114-7.6177 1.6262-3.4047 1.4549-6.117 4.1672-7.5719 7.5719-.7148 1.6728-1.0186 3.6544-1.6262 7.6177-.2111 1.3771-.3167 2.0656-.48539 2.7326-.34131 1.3493-.87675 2.642-1.58956 3.8375-.3523.5909-.76454 1.1524-1.58904 2.2755-2.37278 3.2321-3.55917 4.8481-4.23655 6.5364-1.37876 3.4362-1.37876 7.272 0 10.7082.67738 1.6883 1.86377 3.3043 4.23658 6.5364.82447 1.1231 1.23671 1.6846 1.589 2.2755.71281 1.1955 1.24826 2.4882 1.58957 3.8375.16869.6669.27429 1.3555.48539 2.7326.6076 3.9633.9114 5.9449 1.6262 7.6177 1.4549 3.4047 4.1672 6.117 7.5719 7.5719 1.6728.7148 3.6544 1.0186 7.6177 1.6262l.0012.0002c1.3763.211 2.0646.3166 2.7314.4852 1.3493.3413 2.642.8767 3.8375 1.5896.5909.3522 1.1524.7645 2.2755 1.589 3.2321 2.3728 4.8481 3.5592 6.5364 4.2365 3.4362 1.3788 7.272 1.3788 10.7082 0 1.6883-.6773 3.3043-1.8637 6.5364-4.2365l.001-.0007c1.1224-.824 1.6838-1.2362 2.2745-1.5883 1.1955-.7129 2.4882-1.2483 3.8375-1.5896.6669-.1687 1.3554-.2743 2.7323-.4854 3.9632-.6076 5.9453-.9115 7.618-1.6262 3.4047-1.4549 6.117-4.1672 7.5719-7.5719.7147-1.6727 1.0186-3.6544 1.6262-7.6177.2111-1.3769.3167-2.0657.4854-2.7326.3413-1.3493.8767-2.642 1.5896-3.8375.3521-.5907.7643-1.1521 1.5883-2.2745l.0006-.0009c2.3728-3.2321 3.5593-4.8482 4.2366-6.5365 1.3788-3.4362 1.3788-7.272 0-10.7082-.6773-1.6883-1.8637-3.3043-4.2365-6.5364-.8245-1.1231-1.2368-1.6846-1.589-2.2755-.7129-1.1955-1.2483-2.4882-1.5896-3.8375-.1686-.6668-.2742-1.3551-.4852-2.7314-.6076-3.9633-.9116-5.9461-1.6264-7.6189-1.4549-3.4047-4.1672-6.117-7.5719-7.5719-1.6728-.7148-3.6544-1.0186-7.6177-1.6262-1.3771-.2111-2.0657-.3167-2.7326-.48539-1.3493-.34131-2.642-.87676-3.8375-1.58957-.5909-.35229-1.1524-.76453-2.2755-1.58904-3.2321-2.37277-4.8481-3.55916-6.5364-4.23654-3.4362-1.37876-7.272-1.37876-10.7082 0z"></path></g><path d="m156.101 33.04h-5.4v39.96l-4.608.072-25.92-32.472h-.288v25.56h6.84v6.84h-19.512v-6.84h5.184v-33.12h-5.904v-6.84h11.736l24.696 30.96h.288v-24.12h-6.84v-6.84h19.728z"></path><path d="m160.886 43.048c2.4-1.152 4.536-1.944 6.408-2.376s4.032-.648 6.48-.648c3.6 0 6.552.912 8.856 2.736 2.352 1.824 3.528 4.56 3.528 8.208v14.544c0 1.92.792 2.88 2.376 2.88.432 0 .984-.096 1.656-.288l.072 4.248c-1.584.912-3.312 1.368-5.184 1.368-4.08 0-6.288-2.136-6.624-6.408v-.144c-.96 1.68-2.328 3.192-4.104 4.536-1.728 1.344-3.888 2.016-6.48 2.016-2.256 0-4.488-.672-6.696-2.016-2.16-1.392-3.24-3.792-3.24-7.2 0-3.984 1.584-6.6 4.752-7.848 3.168-1.296 6.6-1.944 10.296-1.944.912 0 1.848.024 2.808.072s1.848.12 2.664.216v-1.8c0-1.92-.336-3.648-1.008-5.184s-2.352-2.304-5.04-2.304c-1.008 0-1.968.072-2.88.216-.864.144-1.704.432-2.52.864l-1.296 4.968-6.192-.648zm17.568 17.136v-1.152c-.816-.096-1.656-.192-2.52-.288s-1.752-.144-2.664-.144c-1.92 0-3.648.336-5.184 1.008-1.488.672-2.232 2.016-2.232 4.032 0 2.928 1.56 4.392 4.68 4.392 1.824 0 3.552-.648 5.184-1.944 1.632-1.344 2.544-3.312 2.736-5.904z"></path><path d="m229.139 56.008c0 4.608-1.224 8.712-3.672 12.312-2.4 3.6-6.12 5.4-11.16 5.4-4.656 0-8.04-1.68-10.152-5.04v13.608h6.408v6.048h-18.936v-6.048h4.824v-35.712h-5.04v-5.904h12.744v6.408c.912-1.92 2.232-3.576 3.96-4.968 1.776-1.392 4.152-2.088 7.128-2.088 4.128 0 7.464 1.416 10.008 4.248 2.592 2.784 3.888 6.696 3.888 11.736zm-7.992.792c0-3.456-.792-6.072-2.376-7.848-1.584-1.824-3.6-2.736-6.048-2.736-2.592 0-4.632.984-6.12 2.952s-2.28 4.272-2.376 6.912l-.072 2.52c0 2.688.768 4.848 2.304 6.48 1.584 1.632 3.6 2.448 6.048 2.448 2.736 0 4.848-.96 6.336-2.88 1.536-1.92 2.304-4.536 2.304-7.848z"></path><path d="m268.405 73h-16.128v-5.904h3.744l-6.768-8.064h-5.184v8.064h3.6v5.904h-16.128v-5.904h4.824v-37.728h-5.112v-5.904h12.816v30.024h5.544l5.688-6.84h-4.248v-5.976h15.768v5.976h-4.032l-7.632 8.928 9.792 11.52h3.456z"></path><path d="m275.24 33.976v-8.496h7.848v8.496zm12.888 39.024h-17.28v-5.904h4.824v-20.448h-5.112v-5.976h12.744v26.424h4.824z"></path><path d="m330.095 73h-17.28v-5.904h4.752v-12.672c0-3.072-.552-5.232-1.656-6.48-1.104-1.296-2.64-1.944-4.608-1.944-2.448 0-4.392.792-5.832 2.376-1.392 1.584-2.112 3.528-2.16 5.832v12.888h4.824v5.904h-17.352v-5.904h4.824v-20.448h-5.04v-5.976h12.744v5.256c2.256-3.936 5.832-5.904 10.728-5.904 3.072 0 5.712.936 7.92 2.808s3.312 4.8 3.312 8.784v15.48h4.824z"></path></g></svg>