<svg width="24" height="24" viewBox="0 0 24 24" fill="none" xmlns="http://www.w3.org/2000/svg">
<path d="M19.3334 12C19.3334 16.0501 16.0502 19.3333 12.0001 19.3333C7.94999 19.3333 4.66675 16.0501 4.66675 12C4.66675 7.94991 7.94999 4.66667 12.0001 4.66667C16.0502 4.66667 19.3334 7.94991 19.3334 12ZM6.00464 12C6.00464 15.3112 8.68889 17.9954 12.0001 17.9954C15.3113 17.9954 17.9955 15.3112 17.9955 12C17.9955 8.68881 15.3113 6.00455 12.0001 6.00455C8.68889 6.00455 6.00464 8.68881 6.00464 12Z" fill="#666B74"/>
<path d="M13.0001 16C13.0001 16.5523 12.5524 17 12.0001 17C11.4478 17 11.0001 16.5523 11.0001 16C11.0001 15.4477 11.4478 15 12.0001 15C12.5524 15 13.0001 15.4477 13.0001 16Z" fill="#666B74"/>
<path d="M11.3334 12V13.3333C11.3334 13.3333 11.3334 14 12.0001 14C12.6667 14 12.6667 13.3333 12.6667 13.3333V12C12.6667 12 12.9862 11.9086 13.1087 11.8589C13.1087 11.8589 13.3314 11.7794 13.4872 11.6597C13.6431 11.5401 13.7841 11.398 13.9103 11.2335C14.0439 11.069 14.1478 10.8783 14.2221 10.6615C14.2963 10.4446 14.3334 10.2692 14.3334 10C14.3334 9.55134 14.2332 9.09116 14.0328 8.75467C13.8398 8.4107 13.5652 8.14524 13.2089 7.9583C12.8526 7.76388 12.4369 7.66667 11.9619 7.66667C11.665 7.66667 11.4015 7.70406 11.1714 7.77883C10.9413 7.84613 10.7372 7.9396 10.559 8.05925C10.3883 8.17141 10.2436 8.29853 10.1248 8.44061C10.0135 8.5752 9.92441 8.70606 9.85761 8.83318C9.79081 8.9603 9.74627 9.07247 9.72401 9.16968C9.67947 9.31175 9.66091 9.42766 9.66834 9.51739C9.68318 9.60712 9.72772 9.6819 9.80194 9.74172C9.87617 9.80154 9.99122 9.8651 10.1471 9.9324C10.3104 9.98475 10.4366 10.0034 10.5256 9.98848C10.6221 9.97353 10.7001 9.92866 10.7595 9.85389C10.7595 9.85389 11.076 9.40379 11.165 9.31406C11.2615 9.21685 11.3803 9.14208 11.5213 9.08973C11.6624 9.02991 11.8219 9 12.0001 9C12.3861 9 12.6718 9.09347 12.8574 9.28041C13.0504 9.45988 13.1087 9.61086 13.1087 9.95483C13.1087 10.1866 13.0679 10.3736 12.9862 10.5157C12.9046 10.6577 12.7969 10.7736 12.6633 10.8634C12.6633 10.8634 12.4819 10.9327 12.3334 11C12.1924 11.0598 11.9335 11.1587 11.7999 11.2335C11.6737 11.3008 11.603 11.3715 11.5213 11.4762C11.4397 11.5809 11.3334 11.8205 11.3334 12Z" fill="#666B74"/>
</svg>
